<svg width="624" height="699" xmlns="http://www.w3.org/2000/svg" xmlns:xlink="http://www.w3.org/1999/xlink" overflow="hidden"><defs><clipPath id="clip0"><rect x="0" y="0" width="624" height="699"/></clipPath></defs><g clip-path="url(#clip0)"><rect x="0" y="0" width="624" height="699.459" fill="#FFFFFF"/><path d="M4.00004 7.99379 565.332 7.99379 619 61.6202 619 329.745 4.00004 329.745Z" stroke="#000000" stroke-width="1.66756" stroke-miterlimit="8" fill="#E7E6E6" fill-rule="evenodd"/><path d="M0.833135-3.51884e-07 0.833239 246.945-0.83303 246.945-0.833135 3.51884e-07ZM4.03914 242.055 0.000104798 248.518-4.03893 242.055C-4.2828 241.665-4.16418 241.151-3.774 240.907-3.38381 240.663-2.86981 240.782-2.62594 241.172L0.706601 246.504-0.706393 246.504 2.62614 241.172C2.87001 240.782 3.38401 240.663 3.7742 240.907 4.16439 241.151 4.283 241.665 4.03914 242.055Z" fill="#C55A11" transform="matrix(1.00077 0 0 -1 164 556.274)"/><path d="M4.00004 340.737 586.333 340.737 620 374.378 620 542.581 4.00004 542.581Z" stroke="#0070C0" stroke-width="1.66756" stroke-miterlimit="8" fill="#E7E6E6" fill-rule="evenodd"/><text font-family="Open Sans,Open Sans_MSFontService,sans-serif" font-weight="400" font-size="21" transform="matrix(1 0 0 0.999228 13.2482 28)">Java test file<tspan fill="#0070C0" font-size="21" x="-2.77587" y="338.261">SQL file</tspan></text><path d="M4.00004 557.569 412.666 557.569 435 579.886 435 691.465 4.00004 691.465Z" stroke="#C55A11" stroke-width="1.66756" stroke-miterlimit="8" fill="#E7E6E6" fill-rule="evenodd"/><text fill="#C55A11" font-family="Open Sans,Open Sans_MSFontService,sans-serif" font-weight="400" font-size="21" transform="matrix(1 0 0 0.999228 8.9858 583)">Expected<tspan font-size="21" x="96.2181" y="0">response</tspan><tspan font-size="21" x="193.77" y="0">file</tspan><tspan fill="#0070C0" font-style="italic" font-size="15" x="96.9241" y="-217.168">api</tspan><tspan fill="#0070C0" font-style="italic" font-size="15" x="117.435" y="-217.168">-</tspan><tspan fill="#0070C0" font-style="italic" font-size="15" x="121.937" y="-217.168">owners.sql</tspan><tspan font-family="Calibri,Calibri_MSFontService,sans-serif" font-size="15" x="11.4799" y="28.0216">[</tspan><tspan font-family="Calibri,Calibri_MSFontService,sans-serif" font-size="15" x="18.1502" y="45.0348">{</tspan><tspan font-family="Calibri,Calibri_MSFontService,sans-serif" font-size="15" x="24.8204" y="63.0487">"</tspan><tspan font-family="Calibri,Calibri_MSFontService,sans-serif" font-size="15" x="30.6568" y="63.0487">firstName</tspan><tspan font-family="Calibri,Calibri_MSFontService,sans-serif" font-size="15" x="89.6884" y="63.0487">": "George",</tspan><tspan font-family="Calibri,Calibri_MSFontService,sans-serif" font-size="15" x="24.8204" y="81.0626">"</tspan><tspan font-family="Calibri,Calibri_MSFontService,sans-serif" font-size="15" x="30.6568" y="81.0626">lastName</tspan><tspan font-family="Calibri,Calibri_MSFontService,sans-serif" font-size="15" x="87.0203" y="81.0626">": "Franklin",</tspan><tspan font-family="Calibri,Calibri_MSFontService,sans-serif" font-size="15" x="24.8204" y="98.0758">...</tspan><tspan fill="#000000" font-family="Calibri,Calibri_MSFontService,sans-serif" font-size="15" x="4.00035" y="-525.406">@SpringBootTest(classes = {</tspan><tspan fill="#000000" font-family="Calibri,Calibri_MSFontService,sans-serif" font-size="15" x="171.757" y="-525.406">PetClinicApplication.class</tspan><tspan fill="#000000" font-family="Calibri,Calibri_MSFontService,sans-serif" font-size="15" x="321.837" y="-525.406">})</tspan><tspan fill="#000000" font-family="Calibri,Calibri_MSFontService,sans-serif" font-size="15" x="4.00035" y="-508.393">@Sql("/</tspan><tspan fill="#0070C0" font-family="Calibri,Calibri_MSFontService,sans-serif" font-weight="700" font-size="15" x="50.8587" y="-508.393">api</tspan><tspan fill="#0070C0" font-family="Calibri,Calibri_MSFontService,sans-serif" font-weight="700" font-size="15" x="69.5354" y="-508.393">-</tspan><tspan fill="#0070C0" font-family="Calibri,Calibri_MSFontService,sans-serif" font-weight="700" font-size="15" x="74.0378" y="-508.393">owners.sql</tspan><tspan fill="#000000" font-family="Calibri,Calibri_MSFontService,sans-serif" font-size="15" x="140.407" y="-508.393">")</tspan><tspan fill="#000000" font-family="Calibri,Calibri_MSFontService,sans-serif" font-size="15" x="4.00035" y="-490.379">…</tspan><tspan fill="#000000" font-family="Calibri,Calibri_MSFontService,sans-serif" font-size="15" x="4.00035" y="-472.365">public class </tspan><tspan fill="#000000" font-family="Calibri,Calibri_MSFontService,sans-serif" font-size="15" x="74.3713" y="-472.365">ApiOwnersTest</tspan><tspan fill="#000000" font-family="Calibri,Calibri_MSFontService,sans-serif" font-size="15" x="168.255" y="-472.365">{</tspan><tspan fill="#000000" font-family="Calibri,Calibri_MSFontService,sans-serif" font-weight="700" font-size="15" x="17.3408" y="-437.338">@DisableSameSelectTypesWithDifferentParamValues</tspan><tspan fill="#000000" font-family="Calibri,Calibri_MSFontService,sans-serif" font-size="15" x="17.3408" y="-420.325">@Test</tspan><tspan fill="#000000" font-family="Calibri,Calibri_MSFontService,sans-serif" font-size="15" x="17.3408" y="-402.311">public </tspan><tspan fill="#000000" font-family="Calibri,Calibri_MSFontService,sans-serif" font-size="15" x="56.5284" y="-402.311">void</tspan><tspan fill="#000000" font-family="Calibri,Calibri_MSFontService,sans-serif" font-size="15" x="85.2104" y="-402.311">get_api_owners</tspan><tspan fill="#000000" font-family="Calibri,Calibri_MSFontService,sans-serif" font-size="15" x="180.928" y="-402.311">() </tspan><tspan fill="#000000" font-family="Calibri,Calibri_MSFontService,sans-serif" font-size="15" x="193.268" y="-402.311">throws</tspan><tspan fill="#000000" font-family="Calibri,Calibri_MSFontService,sans-serif" font-size="15" x="238.125" y="-402.311">Exception {</tspan><tspan fill="#000000" font-family="Calibri,Calibri_MSFontService,sans-serif" font-size="15" x="30.6813" y="-367.284">MvcResult</tspan><tspan fill="#000000" font-family="Calibri,Calibri_MSFontService,sans-serif" font-size="15" x="96.2163" y="-367.284">result</tspan><tspan fill="#000000" font-family="Calibri,Calibri_MSFontService,sans-serif" font-size="15" x="133.57" y="-367.284">= </tspan><tspan fill="#000000" font-family="Calibri,Calibri_MSFontService,sans-serif" font-size="15" x="144.242" y="-367.284">mockMvc.perform</tspan><tspan fill="#000000" font-family="Calibri,Calibri_MSFontService,sans-serif" font-size="15" x="254.634" y="-367.284">(</tspan><tspan fill="#000000" font-family="Calibri,Calibri_MSFontService,sans-serif" font-size="15" x="259.137" y="-367.284">get</tspan><tspan fill="#000000" font-family="Calibri,Calibri_MSFontService,sans-serif" font-size="15" x="278.147" y="-367.284">("</tspan><tspan fill="#7030A0" font-family="Calibri,Calibri_MSFontService,sans-serif" font-weight="700" font-size="15" x="288.486" y="-367.284">/api/</tspan><tspan fill="#7030A0" font-family="Calibri,Calibri_MSFontService,sans-serif" font-weight="700" font-size="15" x="319.836" y="-367.284">owners</tspan><tspan fill="#000000" font-family="Calibri,Calibri_MSFontService,sans-serif" font-size="15" x="364.86" y="-367.284">"))</tspan><tspan fill="#000000" font-family="Calibri,Calibri_MSFontService,sans-serif" font-size="15" x="54.0271" y="-349.27">.</tspan><tspan fill="#000000" font-family="Calibri,Calibri_MSFontService,sans-serif" font-size="15" x="57.6957" y="-349.27">andExpect</tspan><tspan fill="#000000" font-family="Calibri,Calibri_MSFontService,sans-serif" font-size="15" x="119.562" y="-349.27">(</tspan><tspan fill="#000000" font-family="Calibri,Calibri_MSFontService,sans-serif" font-size="15" x="124.064" y="-349.27">status</tspan><tspan fill="#000000" font-family="Calibri,Calibri_MSFontService,sans-serif" font-size="15" x="159.75" y="-349.27">().</tspan><tspan fill="#000000" font-family="Calibri,Calibri_MSFontService,sans-serif" font-size="15" x="172.424" y="-349.27">isOk</tspan><tspan fill="#000000" font-family="Calibri,Calibri_MSFontService,sans-serif" font-size="15" x="197.771" y="-349.27">())</tspan><tspan fill="#000000" font-family="Calibri,Calibri_MSFontService,sans-serif" font-size="15" x="54.0271" y="-332.257">.</tspan><tspan fill="#000000" font-family="Calibri,Calibri_MSFontService,sans-serif" font-size="15" x="57.6957" y="-332.257">andReturn</tspan><tspan fill="#000000" font-family="Calibri,Calibri_MSFontService,sans-serif" font-size="15" x="120.729" y="-332.257">();</tspan><tspan fill="#000000" font-family="Calibri,Calibri_MSFontService,sans-serif" font-size="15" x="34.0164" y="-314.243">...</tspan><tspan fill="#000000" font-family="Calibri,Calibri_MSFontService,sans-serif" font-size="15" x="30.6813" y="-296.229">assertEquals</tspan><tspan fill="#000000" font-family="Calibri,Calibri_MSFontService,sans-serif" font-size="15" x="104.888" y="-296.229">(</tspan><tspan font-family="Calibri,Calibri_MSFontService,sans-serif" font-weight="700" font-size="15" x="109.39" y="-296.229">expectedResponse</tspan><tspan fill="#000000" font-family="Calibri,Calibri_MSFontService,sans-serif" font-size="15" x="223.284" y="-296.229">, </tspan><tspan fill="#000000" font-family="Calibri,Calibri_MSFontService,sans-serif" font-size="15" x="230.288" y="-296.229">actualResponse</tspan><tspan fill="#000000" font-family="Calibri,Calibri_MSFontService,sans-serif" font-size="15" x="323.338" y="-296.229">, </tspan><tspan fill="#000000" font-family="Calibri,Calibri_MSFontService,sans-serif" font-size="15" x="330.341" y="-296.229">JSONCompareMode.LENIENT</tspan><tspan fill="#000000" font-family="Calibri,Calibri_MSFontService,sans-serif" font-size="15" x="504.434" y="-296.229">);</tspan><tspan fill="#000000" font-family="Calibri,Calibri_MSFontService,sans-serif" font-size="15" x="4.00035" y="-279.216">…</tspan><tspan font-style="italic" font-size="15" x="243.263" y="0">api</tspan><tspan font-style="italic" font-size="15" x="263.774" y="0">-</tspan><tspan font-style="italic" font-size="15" x="268.277" y="0">owners</tspan><tspan font-style="italic" font-size="15" x="314.801" y="0">-</tspan><tspan font-style="italic" font-size="15" x="319.304" y="0">expected.json</tspan><tspan fill="#0070C0" font-family="Calibri,Calibri_MSFontService,sans-serif" font-size="15" x="5.26108" y="-185.143">INSERT INTO OWNERS(ID, FIRST_NAME, LAST_NAME, ADDRESS, CITY, TELEPHONE) VALUES(1, </tspan><tspan fill="#0070C0" font-family="Calibri,Calibri_MSFontService,sans-serif" font-size="15" x="5.26108" y="-168.13">'George', 'Franklin', '110 W. Liberty St.', 'Madison', '6085551023');</tspan><tspan fill="#0070C0" font-family="Calibri,Calibri_MSFontService,sans-serif" font-size="15" x="5.26108" y="-150.116">...</tspan><tspan fill="#0070C0" font-family="Calibri,Calibri_MSFontService,sans-serif" font-size="15" x="5.26108" y="-132.102">INSERT INTO TYPES(ID, NAME) VALUES(1, 'cat');</tspan><tspan fill="#0070C0" font-family="Calibri,Calibri_MSFontService,sans-serif" font-size="15" x="5.26108" y="-115.089">...</tspan><tspan fill="#0070C0" font-family="Calibri,Calibri_MSFontService,sans-serif" font-size="15" x="5.26108" y="-97.075">INSERT INTO PETS(ID, NAME, BIRTH_DATE, TYPE_ID, OWNER_ID) VALUES(1, 'Leo', '2010</tspan><tspan fill="#0070C0" font-family="Calibri,Calibri_MSFontService,sans-serif" font-size="15" x="527.874" y="-97.075">-</tspan><tspan fill="#0070C0" font-family="Calibri,Calibri_MSFontService,sans-serif" font-size="15" x="532.376" y="-97.075">09</tspan><tspan fill="#0070C0" font-family="Calibri,Calibri_MSFontService,sans-serif" font-size="15" x="547.384" y="-97.075">-</tspan><tspan fill="#0070C0" font-family="Calibri,Calibri_MSFontService,sans-serif" font-size="15" x="551.886" y="-97.075">07', 1, 1);</tspan><tspan fill="#0070C0" font-family="Calibri,Calibri_MSFontService,sans-serif" font-size="15" x="5.26108" y="-62.0479">INSERT INTO VISITS(ID, PET_ID, VISIT_DATE, DESCRIPTION) VALUES(1, 7, '2013</tspan><tspan fill="#0070C0" font-family="Calibri,Calibri_MSFontService,sans-serif" font-size="15" x="469.676" y="-62.0479">-</tspan><tspan fill="#0070C0" font-family="Calibri,Calibri_MSFontService,sans-serif" font-size="15" x="474.178" y="-62.0479">01</tspan><tspan fill="#0070C0" font-family="Calibri,Calibri_MSFontService,sans-serif" font-size="15" x="489.186" y="-62.0479">-</tspan><tspan fill="#0070C0" font-family="Calibri,Calibri_MSFontService,sans-serif" font-size="15" x="493.689" y="-62.0479">01', '</tspan><tspan fill="#0070C0" font-family="Calibri,Calibri_MSFontService,sans-serif" font-size="15" x="522.037" y="-62.0479">rabies</tspan><tspan fill="#0070C0" font-family="Calibri,Calibri_MSFontService,sans-serif" font-size="15" x="561.558" y="-62.0479">shot');</tspan><tspan fill="#000000" font-style="italic" font-size="15" x="140.707" y="-554.428">ApiOwnersTest.java</tspan></text><path d="M0 0 0.000104962 253.273" stroke="#0070C0" stroke-width="1.66627" stroke-miterlimit="8" fill="none" fill-rule="evenodd" transform="matrix(1.00077 0 0 -1 552 341.205)"/><path d="M0 0 446.37 0.000104962" stroke="#0070C0" stroke-width="1.66627" stroke-miterlimit="8" fill="none" fill-rule="evenodd" transform="matrix(-1.00077 0 0 1 552.715 87.932)"/><path d="M106.834 78.5068 106.834 88.2711 105.166 88.2711 105.166 78.5068ZM101.958 83.3973 106 76.9348 110.042 83.3973C110.286 83.7874 110.168 84.3014 109.777 84.5453 109.387 84.7892 108.872 84.6706 108.628 84.2804L105.293 78.9484 106.707 78.9483 103.372 84.2804C103.128 84.6706 102.614 84.7892 102.223 84.5454 101.833 84.3015 101.714 83.7875 101.958 83.3973Z" fill="#0070C0"/><path d="M164.5 71.9444C164.5 66.7017 168.753 62.4517 174 62.4517 179.247 62.4517 183.5 66.7017 183.5 71.9444 183.5 77.187 179.247 81.4371 174 81.4371 168.753 81.4371 164.5 77.187 164.5 71.9444Z" stroke="#70AD47" stroke-width="1.33405" stroke-miterlimit="8" fill="#70AD47" fill-rule="evenodd"/><text fill="#FFFFFF" font-family="Calibri,Calibri_MSFontService,sans-serif" font-weight="400" font-size="15" transform="matrix(1 0 0 0.999228 169.302 77)">1</text><path d="M393.5 211.836C393.5 206.594 397.753 202.344 403 202.344 408.247 202.344 412.5 206.594 412.5 211.836 412.5 217.079 408.247 221.329 403 221.329 397.753 221.329 393.5 217.079 393.5 211.836Z" stroke="#70AD47" stroke-width="1.33405" stroke-miterlimit="8" fill="#70AD47" fill-rule="evenodd"/><text fill="#FFFFFF" font-family="Calibri,Calibri_MSFontService,sans-serif" font-weight="400" font-size="15" transform="matrix(1 0 0 0.999228 398.568 217)">2</text><path d="M527.5 300.268C527.5 295.301 531.753 291.275 537 291.275 542.247 291.275 546.5 295.301 546.5 300.268 546.5 305.235 542.247 309.261 537 309.261 531.753 309.261 527.5 305.235 527.5 300.268Z" stroke="#70AD47" stroke-width="1.33405" stroke-miterlimit="8" fill="#70AD47" fill-rule="evenodd"/><text fill="#FFFFFF" font-family="Calibri,Calibri_MSFontService,sans-serif" font-weight="400" font-size="15" transform="matrix(1 0 0 0.999228 532.353 305)">3</text><path d="M361.5 142.89C361.5 137.647 365.753 133.397 371 133.397 376.247 133.397 380.5 137.647 380.5 142.89 380.5 148.132 376.247 152.382 371 152.382 365.753 152.382 361.5 148.132 361.5 142.89Z" stroke="#70AD47" stroke-width="1.33405" stroke-miterlimit="8" fill="#70AD47" fill-rule="evenodd"/><text fill="#FFFFFF" font-family="Calibri,Calibri_MSFontService,sans-serif" font-weight="400" font-size="15" transform="matrix(1 0 0 0.999228 366.55 147)">4</text></g></svg>